<svg width="64" height="64" viewBox="0 0 64 64" fill="none" xmlns="http://www.w3.org/2000/svg">
<path d="M18.6615 0C8.36979 0 0 8.38021 0 18.6719V45.3385C0 55.6302 8.38021 64 18.6719 64H45.3385C55.6302 64 64 55.6198 64 45.3281V18.6615C64 8.36979 55.6198 0 45.3281 0H18.6615ZM50.6667 10.6667C52.1406 10.6667 53.3333 11.8594 53.3333 13.3333C53.3333 14.8073 52.1406 16 50.6667 16C49.1927 16 48 14.8073 48 13.3333C48 11.8594 49.1927 10.6667 50.6667 10.6667ZM32 16C40.8229 16 48 23.1771 48 32C48 40.8229 40.8229 48 32 48C23.1771 48 16 40.8229 16 32C16 23.1771 23.1771 16 32 16ZM32 21.3333C26.1094 21.3333 21.3333 26.1094 21.3333 32C21.3333 37.8906 26.1094 42.6667 32 42.6667C37.8906 42.6667 42.6667 37.8906 42.6667 32C42.6667 26.1094 37.8906 21.3333 32 21.3333Z" fill="white"/>
</svg>
