<svg width="60" height="64" viewBox="0 0 60 64" fill="none" xmlns="http://www.w3.org/2000/svg">
<path d="M57.6302 14.1875C56.5417 10.2968 54.3854 7.21349 51.2188 5.03641C47.224 2.28641 42.6302 1.30724 38.6615 0.718702C33.1719 -0.099006 28.1979 -0.213589 23.4635 0.364537C19.0208 0.906203 15.6771 1.77599 12.6198 3.17703C6.64063 5.92703 3.05209 10.375 1.95313 16.3958C1.42188 19.3177 1.06251 21.9583 0.854172 24.4791C0.375005 30.3072 0.812505 35.4635 2.18751 40.2447C3.52605 44.901 5.86459 48.2343 9.34375 50.4166C10.2344 50.9739 11.3646 51.3802 12.4635 51.7656C13.0104 51.9635 13.5365 52.1562 14 52.3593V61.7708C14 63.0052 14.9948 64 16.2292 64C16.8125 64 17.3698 63.7708 17.7865 63.3697L26.4688 54.9218C26.849 54.4895 26.849 54.4895 27.2396 54.4791C30.2031 54.4218 33.2396 54.3072 36.25 54.1458C39.901 53.9427 44.1302 53.5937 48.1146 51.9322C51.7604 50.4062 54.4219 47.9895 56.0208 44.75C57.6875 41.3697 58.6771 37.7083 59.0469 33.552C59.6979 26.2552 59.2344 19.9166 57.6302 14.1875ZM42.5104 41.9739C41.6354 43.401 40.3281 44.3854 38.7969 45.026C37.6719 45.4947 36.526 45.3958 35.4167 44.927C26.1302 40.9947 18.8438 34.802 14.0313 25.8958C13.0365 24.0625 12.349 22.0625 11.5521 20.125C11.3906 19.7239 11.4063 19.2604 11.3333 18.8229C11.401 15.6927 13.8073 13.927 16.2344 13.3958C17.1615 13.1875 17.9792 13.5156 18.6719 14.177C20.5729 15.9947 22.0781 18.0989 23.2135 20.4635C23.7083 21.5 23.4844 22.4166 22.6406 23.1875C22.4688 23.3489 22.2813 23.5 22.0938 23.6406C20.1667 25.0885 19.8802 26.1875 20.9115 28.3697C22.6563 32.0833 25.5625 34.5781 29.3177 36.125C30.3073 36.5312 31.2448 36.3281 32 35.526C32.099 35.4218 32.2135 35.3177 32.2917 35.1927C33.7708 32.7239 35.9219 32.9687 37.9063 34.3802C39.2083 35.302 40.474 36.2812 41.7604 37.2239C43.7188 38.6666 43.7031 40.0208 42.5104 41.9739ZM31.3646 16.3802C30.8646 16.3802 30.3646 16.4218 29.8698 16.5052C29.0417 16.6458 28.2552 16.0833 28.1198 15.25C27.9792 14.4218 28.5365 13.6354 29.3698 13.4947C30.026 13.3906 30.6979 13.3333 31.3646 13.3333C37.9635 13.3333 43.3333 18.7031 43.3333 25.302C43.3333 25.9739 43.276 26.6458 43.1667 27.2968C43.0417 28.0416 42.3958 28.5729 41.6667 28.5729C41.5833 28.5729 41.5 28.5677 41.4115 28.5468C40.5833 28.4062 40.026 27.625 40.1615 26.7968C40.2448 26.3072 40.2865 25.8072 40.2865 25.3072C40.2865 20.3854 36.2813 16.3802 31.3646 16.3802ZM38 26.2864C38 27.125 37.3177 27.8072 36.4792 27.8072C35.6354 27.8072 34.9531 27.125 34.9531 26.2864C34.9531 23.7656 32.9063 21.7135 30.3854 21.7135C29.5417 21.7135 28.8594 21.0312 28.8594 20.1927C28.8594 19.3541 29.5417 18.6718 30.3854 18.6718C34.5833 18.6666 38 22.0833 38 26.2864ZM48.2552 28.1458C48.0938 28.8541 47.4688 29.3281 46.7708 29.3281C46.6563 29.3281 46.5417 29.3177 46.4323 29.2916C45.6094 29.1041 45.0938 28.2916 45.2813 27.4739C45.5052 26.5 45.6146 25.4947 45.6146 24.4843C45.6146 17.0781 39.5885 11.0468 32.1771 11.0468C31.1667 11.0468 30.1667 11.1614 29.1927 11.3802C28.375 11.5729 27.5521 11.052 27.3698 10.2343C27.1823 9.41141 27.6979 8.5937 28.5208 8.41141C29.7135 8.13537 30.9479 7.99995 32.1823 7.99995C41.2708 7.99995 48.6667 15.3958 48.6667 24.4843C48.6667 25.7187 48.526 26.9531 48.2552 28.1458Z" fill="white"/>
</svg>
