<svg width="48" height="48" viewBox="0 0 48 48" fill="none" xmlns="http://www.w3.org/2000/svg">
<path d="M13.9961 0C6.27734 0 0 6.28516 0 14.0039V34.0039C0 41.7227 6.28516 48 14.0039 48H34.0039C41.7227 48 48 41.7148 48 33.9961V13.9961C48 6.27734 41.7148 0 33.9961 0H13.9961ZM38 8C39.1055 8 40 8.89453 40 10C40 11.1055 39.1055 12 38 12C36.8945 12 36 11.1055 36 10C36 8.89453 36.8945 8 38 8ZM24 12C30.6172 12 36 17.3828 36 24C36 30.6172 30.6172 36 24 36C17.3828 36 12 30.6172 12 24C12 17.3828 17.3828 12 24 12ZM24 16C19.582 16 16 19.582 16 24C16 28.418 19.582 32 24 32C28.418 32 32 28.418 32 24C32 19.582 28.418 16 24 16Z" fill="white"/>
</svg>
