<svg aria-hidden="true" style="position: absolute; width: 0; height: 0; overflow: hidden;" version="1.1" xmlns="http://www.w3.org/2000/svg" xmlns:xlink="http://www.w3.org/1999/xlink">
<defs>
<symbol id="viber" viewBox="0 0 29 32">
<path d="M28.482 7.094c-0.544-1.945-1.622-3.487-3.206-4.575-1.997-1.375-4.294-1.865-6.279-2.159-2.745-0.409-5.232-0.466-7.599-0.177-2.221 0.271-3.893 0.706-5.422 1.406-2.99 1.375-4.784 3.599-5.333 6.609-0.266 1.461-0.445 2.781-0.549 4.042-0.24 2.914-0.021 5.492 0.667 7.883 0.669 2.328 1.839 3.995 3.578 5.086 0.445 0.279 1.010 0.482 1.56 0.674 0.273 0.099 0.536 0.195 0.768 0.297v4.706c0 0.617 0.497 1.115 1.115 1.115 0.292 0 0.57-0.115 0.779-0.315l4.341-4.224c0.19-0.216 0.19-0.216 0.385-0.221 1.482-0.029 3-0.086 4.505-0.167 1.826-0.102 3.94-0.276 5.932-1.107 1.823-0.763 3.154-1.971 3.953-3.591 0.833-1.69 1.328-3.521 1.513-5.599 0.326-3.648 0.094-6.818-0.708-9.682zM20.922 20.987c-0.437 0.714-1.091 1.206-1.857 1.526-0.562 0.234-1.135 0.185-1.69-0.049-4.643-1.966-8.286-5.062-10.693-9.516-0.497-0.917-0.841-1.917-1.24-2.885-0.081-0.2-0.073-0.432-0.109-0.651 0.034-1.565 1.237-2.448 2.451-2.714 0.464-0.104 0.872 0.060 1.219 0.391 0.951 0.909 1.703 1.961 2.271 3.143 0.247 0.518 0.135 0.977-0.286 1.362-0.086 0.081-0.18 0.156-0.273 0.227-0.964 0.724-1.107 1.273-0.591 2.365 0.872 1.857 2.326 3.104 4.203 3.878 0.495 0.203 0.964 0.102 1.341-0.299 0.049-0.052 0.107-0.104 0.146-0.167 0.74-1.234 1.815-1.112 2.807-0.406 0.651 0.461 1.284 0.95 1.927 1.422 0.979 0.721 0.971 1.398 0.375 2.375zM15.349 8.19c-0.25 0-0.5 0.021-0.747 0.062-0.414 0.070-0.807-0.211-0.875-0.628-0.070-0.414 0.208-0.807 0.625-0.878 0.328-0.052 0.664-0.081 0.997-0.081 3.299 0 5.984 2.685 5.984 5.984 0 0.336-0.029 0.672-0.083 0.997-0.063 0.372-0.385 0.638-0.75 0.638-0.042 0-0.083-0.003-0.128-0.013-0.414-0.070-0.693-0.461-0.625-0.875 0.042-0.245 0.062-0.495 0.062-0.745 0-2.461-2.003-4.464-4.461-4.464zM18.667 13.143c0 0.419-0.341 0.76-0.76 0.76-0.422 0-0.763-0.341-0.763-0.76 0-1.26-1.023-2.286-2.284-2.286-0.422 0-0.763-0.341-0.763-0.76s0.341-0.76 0.763-0.76c2.099-0.003 3.807 1.706 3.807 3.807zM23.794 14.073c-0.081 0.354-0.393 0.591-0.742 0.591-0.057 0-0.115-0.005-0.169-0.018-0.411-0.094-0.669-0.5-0.576-0.909 0.112-0.487 0.167-0.99 0.167-1.495 0-3.703-3.013-6.719-6.719-6.719-0.505 0-1.005 0.057-1.492 0.167-0.409 0.096-0.82-0.164-0.911-0.573-0.094-0.411 0.164-0.82 0.576-0.911 0.596-0.138 1.214-0.206 1.831-0.206 4.544 0 8.242 3.698 8.242 8.242 0 0.617-0.070 1.234-0.206 1.831z"></path>
</symbol>
<symbol id="instagram" viewBox="0 0 32 32">
<path d="M9.331 0c-5.146 0-9.331 4.19-9.331 9.336v13.333c0 5.146 4.19 9.331 9.336 9.331h13.333c5.146 0 9.331-4.19 9.331-9.336v-13.333c0-5.146-4.19-9.331-9.336-9.331h-13.333zM25.333 5.333c0.737 0 1.333 0.596 1.333 1.333s-0.596 1.333-1.333 1.333c-0.737 0-1.333-0.596-1.333-1.333s0.596-1.333 1.333-1.333zM16 8c4.411 0 8 3.589 8 8s-3.589 8-8 8c-4.411 0-8-3.589-8-8s3.589-8 8-8zM16 10.667c-2.945 0-5.333 2.388-5.333 5.333s2.388 5.333 5.333 5.333c2.945 0 5.333-2.388 5.333-5.333s-2.388-5.333-5.333-5.333z"></path>
</symbol>
<symbol id="f_viber" viewBox="0 0 30 32">
<path d="M28.815 7.094c-0.544-1.945-1.622-3.487-3.206-4.576-1.997-1.375-4.294-1.865-6.279-2.159-2.745-0.409-5.232-0.466-7.599-0.177-2.221 0.271-3.893 0.706-5.422 1.406-2.99 1.375-4.784 3.599-5.333 6.609-0.266 1.461-0.445 2.781-0.549 4.042-0.24 2.914-0.021 5.492 0.667 7.883 0.669 2.328 1.839 3.995 3.578 5.086 0.445 0.279 1.010 0.482 1.56 0.674 0.273 0.099 0.537 0.195 0.768 0.297v4.706c0 0.617 0.497 1.115 1.115 1.115 0.292 0 0.57-0.115 0.779-0.315l4.341-4.224c0.19-0.216 0.19-0.216 0.385-0.221 1.482-0.029 3-0.086 4.505-0.167 1.825-0.102 3.94-0.276 5.932-1.107 1.823-0.763 3.154-1.971 3.953-3.591 0.833-1.69 1.328-3.521 1.513-5.599 0.326-3.648 0.094-6.818-0.708-9.682zM21.255 20.987c-0.438 0.714-1.091 1.206-1.857 1.526-0.563 0.234-1.135 0.185-1.69-0.049-4.643-1.966-8.286-5.063-10.693-9.516-0.497-0.917-0.841-1.917-1.24-2.885-0.081-0.201-0.073-0.432-0.109-0.651 0.034-1.565 1.237-2.448 2.451-2.714 0.464-0.104 0.872 0.060 1.219 0.391 0.95 0.909 1.703 1.961 2.271 3.143 0.247 0.518 0.135 0.977-0.286 1.362-0.086 0.081-0.18 0.156-0.273 0.227-0.964 0.724-1.107 1.273-0.591 2.365 0.872 1.857 2.325 3.104 4.203 3.878 0.495 0.203 0.964 0.102 1.341-0.299 0.049-0.052 0.107-0.104 0.146-0.167 0.74-1.234 1.815-1.112 2.807-0.406 0.651 0.461 1.284 0.951 1.927 1.422 0.979 0.721 0.971 1.398 0.375 2.375zM15.682 8.19c-0.25 0-0.5 0.021-0.747 0.063-0.414 0.070-0.807-0.211-0.875-0.628-0.070-0.414 0.208-0.807 0.625-0.878 0.328-0.052 0.664-0.081 0.997-0.081 3.299 0 5.984 2.685 5.984 5.984 0 0.336-0.029 0.672-0.083 0.997-0.063 0.372-0.385 0.638-0.75 0.638-0.042 0-0.083-0.003-0.128-0.013-0.414-0.070-0.693-0.461-0.625-0.875 0.042-0.245 0.063-0.495 0.063-0.745 0-2.461-2.003-4.463-4.461-4.463zM19 13.143c0 0.419-0.341 0.76-0.76 0.76-0.422 0-0.763-0.341-0.763-0.76 0-1.26-1.023-2.286-2.284-2.286-0.422 0-0.763-0.341-0.763-0.76s0.341-0.76 0.763-0.76c2.099-0.003 3.807 1.706 3.807 3.807zM24.128 14.073c-0.081 0.354-0.393 0.591-0.742 0.591-0.057 0-0.115-0.005-0.169-0.018-0.411-0.094-0.669-0.5-0.576-0.909 0.112-0.487 0.167-0.99 0.167-1.495 0-3.703-3.013-6.719-6.719-6.719-0.505 0-1.005 0.057-1.492 0.167-0.409 0.096-0.82-0.164-0.911-0.573-0.094-0.411 0.164-0.82 0.575-0.911 0.596-0.138 1.214-0.206 1.831-0.206 4.544 0 8.242 3.698 8.242 8.242 0 0.617-0.070 1.234-0.206 1.831z"></path>
</symbol>
<symbol id="f_instagram" viewBox="0 0 32 32">
<path d="M9.331 0c-5.146 0-9.331 4.19-9.331 9.336v13.333c0 5.146 4.19 9.331 9.336 9.331h13.333c5.146 0 9.331-4.19 9.331-9.336v-13.333c0-5.146-4.19-9.331-9.336-9.331h-13.333zM25.333 5.333c0.737 0 1.333 0.596 1.333 1.333s-0.596 1.333-1.333 1.333c-0.737 0-1.333-0.596-1.333-1.333s0.596-1.333 1.333-1.333zM16 8c4.411 0 8 3.589 8 8s-3.589 8-8 8c-4.411 0-8-3.589-8-8s3.589-8 8-8zM16 10.667c-2.945 0-5.333 2.388-5.333 5.333s2.388 5.333 5.333 5.333c2.945 0 5.333-2.388 5.333-5.333s-2.388-5.333-5.333-5.333z"></path>
</symbol>
<symbol id="mail" viewBox="0 0 32 32">
<path d="M16 0c-8.837 0-16 7.163-16 16s7.163 16 16 16 16-7.163 16-16-7.163-16-16-16zM8 8h16c0.286 0 0.563 0.061 0.817 0.177l-8.817 10.286-8.817-10.287c0.254-0.116 0.531-0.177 0.817-0.177zM6 22v-12c0-0.042 0.002-0.084 0.004-0.125l5.864 6.842-5.8 5.8c-0.045-0.167-0.069-0.34-0.069-0.517zM24 24h-16c-0.177 0-0.35-0.024-0.517-0.069l5.691-5.691 2.826 3.297 2.826-3.297 5.691 5.691c-0.167 0.045-0.34 0.069-0.517 0.069zM26 22c0 0.177-0.024 0.35-0.069 0.517l-5.8-5.8 5.865-6.842c0.003 0.041 0.004 0.083 0.004 0.125v12z"></path>
</symbol>
</defs>
</svg>
